# xmcd CD database file
#
# Track frame offsets:
#	150
#	19542
#	40371
#	58038
#	79418
#	99934
#	117073
#	133753
#	151678
#	173283
#	190977
#	211748
#	225895
#
# Disc length: 3213 seconds
#
# Revision: 2
# Processed by: cddbd v1.5.1PL2 Copyright (c) Steve Scherf et al.
# Submitted via: CDex 1.51
#
DISCID=920c8b0d
DTITLE=Swing Shift - Jingle Jangle (Volume 1)
DYEAR=1900
DGENRE=Swing
TTITLE0=My Favorite Things
TTITLE1=Jingle Jangle
TTITLE2=Silver Bells
TTITLE3=Jolly Old Saint Nicholas
TTITLE4=Rockin' Around the Christmas Tree
TTITLE5=Let it Snow, Let it Snow, Let it Snow
TTITLE6='Zat You, Santa Claus
TTITLE7=We Wish You A Merry Christmas
TTITLE8=The Christmas Song
TTITLE9=We Need A Little Christmas
TTITLE10=Santa Baby
TTITLE11=Winter Wonderland
TTITLE12=It's Beginning To Look A Lot Like Christmas
EXTD=
EXTT0=
EXTT1=
EXTT2=
EXTT3=
EXTT4=
EXTT5=
EXTT6=
EXTT7=
EXTT8=
EXTT9=
EXTT10=
EXTT11=
EXTT12=
PLAYORDER=
